HIERARCHY
ROOT Hips
{
	OFFSET 0.058547 100.481255 -0.522458
	CHANNELS 6 Xposition Yposition Zposition Xrotation Yrotation Zrotation 
	JOINT Spine
	{
		OFFSET -0.279214 12.230705 -2.892139
		CHANNELS 3 Xrotation Yrotation Zrotation
		JOINT Spine1
		{
			OFFSET -0.232678 10.192256 -1.242257
			CHANNELS 3 Xrotation Yrotation Zrotation
			JOINT Spine1_split
			{
				OFFSET -0.232678 10.192256 -1.242257
				CHANNELS 3 Xrotation Yrotation Zrotation
				JOINT Spine2
				{
					OFFSET -0.232678 10.192256 -1.242257
					CHANNELS 3 Xrotation Yrotation Zrotation
					JOINT Neck
					{
						OFFSET -0.418821 17.814224 8.416937
						CHANNELS 3 Xrotation Yrotation Zrotation
						JOINT Head
						{
							OFFSET 0.000000 7.031097 3.806764
							CHANNELS 3 Xrotation Yrotation Zrotation
							JOINT HeadTop_End
							{
								OFFSET 0.000000 24.646591 12.978601
								CHANNELS 3 Xrotation Yrotation Zrotation
								End Site
								{
									OFFSET 0.000000 0.000000 0.000000
								}
							}
						}
					}
					JOINT LeftShoulder
					{
						OFFSET 8.476512 7.247673 -3.868757
						CHANNELS 3 Xrotation Yrotation Zrotation
						JOINT LeftShoulder_split
						{
							OFFSET 8.476512 7.247673 -3.868757
							CHANNELS 3 Xrotation Yrotation Zrotation
							JOINT LeftArm
							{
								OFFSET 9.308996 -2.777740 0.208551
								CHANNELS 3 Xrotation Yrotation Zrotation
								JOINT LeftForeArm
								{
									OFFSET 29.972336 0.000015 0.000022
									CHANNELS 3 Xrotation Yrotation Zrotation
									JOINT LeftHand
									{
										OFFSET 26.026470 0.000015 0.000033
										CHANNELS 3 Xrotation Yrotation Zrotation
										JOINT LeftHandThumb1
										{
											OFFSET 12.240555 -7.117950 9.230400
											CHANNELS 3 Xrotation Yrotation Zrotation
											JOINT LeftHandThumb2
											{
												OFFSET 4.138626 -2.389450 2.389374
												CHANNELS 3 Xrotation Yrotation Zrotation
												JOINT LeftHandThumb3
												{
													OFFSET 2.726952 -1.574417 1.574393
													CHANNELS 3 Xrotation Yrotation Zrotation
													JOINT LeftHandThumb4
													{
														OFFSET 3.940979 -2.275375 2.275301
														CHANNELS 3 Xrotation Yrotation Zrotation
														End Site
														{
															OFFSET 0.000000 0.000000 0.000000
														}
													}
												}
											}
										}
										JOINT LeftHandIndex1
										{
											OFFSET 24.424660 -1.966187 5.959913
											CHANNELS 3 Xrotation Yrotation Zrotation
											JOINT LeftHandIndex2
											{
												OFFSET 6.426682 0.000015 0.000035
												CHANNELS 3 Xrotation Yrotation Zrotation
												JOINT LeftHandIndex3
												{
													OFFSET 5.337883 -0.000031 0.000035
													CHANNELS 3 Xrotation Yrotation Zrotation
													JOINT LeftHandIndex4
													{
														OFFSET 4.409393 -0.000015 0.000044
														CHANNELS 3 Xrotation Yrotation Zrotation
														End Site
														{
															OFFSET 0.000000 0.000000 0.000000
														}
													}
												}
											}
										}
										JOINT LeftHandMiddle1
										{
											OFFSET 23.810127 0.000000 0.000041
											CHANNELS 3 Xrotation Yrotation Zrotation
											JOINT LeftHandMiddle2
											{
												OFFSET 7.176491 -0.000015 0.000051
												CHANNELS 3 Xrotation Yrotation Zrotation
												JOINT LeftHandMiddle3
												{
													OFFSET 6.774864 -0.000015 0.000032
													CHANNELS 3 Xrotation Yrotation Zrotation
													JOINT LeftHandMiddle4
													{
														OFFSET 5.402740 -0.027710 -0.077597
														CHANNELS 3 Xrotation Yrotation Zrotation
														End Site
														{
															OFFSET 0.000000 0.000000 0.000000
														}
													}
												}
											}
										}
										JOINT LeftHandRing1
										{
											OFFSET 22.908371 -0.858917 -6.017762
											CHANNELS 3 Xrotation Yrotation Zrotation
											JOINT LeftHandRing2
											{
												OFFSET 6.337524 0.000000 -0.000050
												CHANNELS 3 Xrotation Yrotation Zrotation
												JOINT LeftHandRing3
												{
													OFFSET 5.779289 0.000000 -0.000029
													CHANNELS 3 Xrotation Yrotation Zrotation
													JOINT LeftHandRing4
													{
														OFFSET 4.965714 0.000031 -0.000057
														CHANNELS 3 Xrotation Yrotation Zrotation
														End Site
														{
															OFFSET 0.000000 0.000000 0.000000
														}
													}
												}
											}
										}
										JOINT LeftHandPinky1
										{
											OFFSET 20.036995 -1.565994 -10.945109
											CHANNELS 3 Xrotation Yrotation Zrotation
											JOINT LeftHandPinky2
											{
												OFFSET 5.254700 -0.000015 0.000002
												CHANNELS 3 Xrotation Yrotation Zrotation
												JOINT LeftHandPinky3
												{
													OFFSET 4.810226 -0.000015 -0.000019
													CHANNELS 3 Xrotation Yrotation Zrotation
													JOINT LeftHandPinky4
													{
														OFFSET 3.647247 0.000015 -0.000044
														CHANNELS 3 Xrotation Yrotation Zrotation
														End Site
														{
															OFFSET 0.000000 0.000000 0.000000
														}
													}
												}
											}
										}
									}
								}
							}
						}
					}
					JOINT RightShoulder
					{
						OFFSET -7.570480 7.247673 -3.868757
						CHANNELS 3 Xrotation Yrotation Zrotation
						JOINT RightShoulder_split
						{
							OFFSET -7.570480 7.247673 -3.868757
							CHANNELS 3 Xrotation Yrotation Zrotation
							JOINT RightArm
							{
								OFFSET -9.309000 -2.777725 0.208549
								CHANNELS 3 Xrotation Yrotation Zrotation
								JOINT RightForeArm
								{
									OFFSET -29.972336 0.000061 -0.000048
									CHANNELS 3 Xrotation Yrotation Zrotation
									JOINT RightHand
									{
										OFFSET -26.026474 0.000092 0.000017
										CHANNELS 3 Xrotation Yrotation Zrotation
										JOINT RightHandThumb1
										{
											OFFSET -12.240570 -7.117905 9.230402
											CHANNELS 3 Xrotation Yrotation Zrotation
											JOINT RightHandThumb2
											{
												OFFSET -4.138580 -2.389465 2.389442
												CHANNELS 3 Xrotation Yrotation Zrotation
												JOINT RightHandThumb3
												{
													OFFSET -2.726990 -1.574402 1.574351
													CHANNELS 3 Xrotation Yrotation Zrotation
													JOINT RightHandThumb4
													{
														OFFSET -3.940971 -2.275345 2.275330
														CHANNELS 3 Xrotation Yrotation Zrotation
														End Site
														{
															OFFSET 0.000000 0.000000 0.000000
														}
													}
												}
											}
										}
										JOINT RightHandIndex1
										{
											OFFSET -24.424667 -1.966171 5.959853
											CHANNELS 3 Xrotation Yrotation Zrotation
											JOINT RightHandIndex2
											{
												OFFSET -6.426682 -0.000046 0.000010
												CHANNELS 3 Xrotation Yrotation Zrotation
												JOINT RightHandIndex3
												{
													OFFSET -5.337891 0.000015 0.000031
													CHANNELS 3 Xrotation Yrotation Zrotation
													JOINT RightHandIndex4
													{
														OFFSET -4.409386 0.000015 0.000044
														CHANNELS 3 Xrotation Yrotation Zrotation
														End Site
														{
															OFFSET 0.000000 0.000000 0.000000
														}
													}
												}
											}
										}
										JOINT RightHandMiddle1
										{
											OFFSET -23.810127 -0.000015 -0.000027
											CHANNELS 3 Xrotation Yrotation Zrotation
											JOINT RightHandMiddle2
											{
												OFFSET -7.176491 -0.000046 -0.000001
												CHANNELS 3 Xrotation Yrotation Zrotation
												JOINT RightHandMiddle3
												{
													OFFSET -6.774857 -0.000046 0.000038
													CHANNELS 3 Xrotation Yrotation Zrotation
													JOINT RightHandMiddle4
													{
														OFFSET -5.402740 -0.027740 -0.077594
														CHANNELS 3 Xrotation Yrotation Zrotation
														End Site
														{
															OFFSET 0.000000 0.000000 0.000000
														}
													}
												}
											}
										}
										JOINT RightHandRing1
										{
											OFFSET -22.908348 -0.858963 -6.017824
											CHANNELS 3 Xrotation Yrotation Zrotation
											JOINT RightHandRing2
											{
												OFFSET -6.337524 0.000046 -0.000019
												CHANNELS 3 Xrotation Yrotation Zrotation
												JOINT RightHandRing3
												{
													OFFSET -5.779289 0.000046 -0.000004
													CHANNELS 3 Xrotation Yrotation Zrotation
													JOINT RightHandRing4
													{
														OFFSET -4.965721 -0.000031 -0.000032
														CHANNELS 3 Xrotation Yrotation Zrotation
														End Site
														{
															OFFSET 0.000000 0.000000 0.000000
														}
													}
												}
											}
										}
										JOINT RightHandPinky1
										{
											OFFSET -20.036957 -1.566071 -10.945158
											CHANNELS 3 Xrotation Yrotation Zrotation
											JOINT RightHandPinky2
											{
												OFFSET -5.254700 0.000031 -0.000025
												CHANNELS 3 Xrotation Yrotation Zrotation
												JOINT RightHandPinky3
												{
													OFFSET -4.810226 -0.000015 -0.000048
													CHANNELS 3 Xrotation Yrotation Zrotation
													JOINT RightHandPinky4
													{
														OFFSET -3.647247 -0.000031 -0.000029
														CHANNELS 3 Xrotation Yrotation Zrotation
														End Site
														{
															OFFSET 0.000000 0.000000 0.000000
														}
													}
												}
											}
										}
									}
								}
							}
						}
					}
				}
			}
		}
	}
	JOINT LeftUpLeg
	{
		OFFSET 15.427091 -6.655090 0.678631
		CHANNELS 3 Xrotation Yrotation Zrotation
		JOINT LeftLeg
		{
			OFFSET 4.088469 -39.590321 13.023970
			CHANNELS 3 Xrotation Yrotation Zrotation
			JOINT LeftFoot
			{
				OFFSET -4.073973 -37.708702 -15.979749
				CHANNELS 3 Xrotation Yrotation Zrotation
				JOINT LeftToeBase
				{
					OFFSET 5.346369 -15.068922 20.645004
					CHANNELS 3 Xrotation Yrotation Zrotation
					JOINT LeftToe_End
					{
						OFFSET 2.754658 0.931270 11.300900
						CHANNELS 3 Xrotation Yrotation Zrotation
						End Site
						{
							OFFSET 0.000000 0.000000 0.000000
						}
					}
				}
			}
		}
	}
	JOINT RightUpLeg
	{
		OFFSET -15.569522 -6.655090 0.678631
		CHANNELS 3 Xrotation Yrotation Zrotation
		JOINT RightLeg
		{
			OFFSET -4.074467 -39.591820 13.023795
			CHANNELS 3 Xrotation Yrotation Zrotation
			JOINT RightFoot
			{
				OFFSET 4.088761 -37.707176 -15.979579
				CHANNELS 3 Xrotation Yrotation Zrotation
				JOINT RightToeBase
				{
					OFFSET -5.346370 -15.068919 20.645004
					CHANNELS 3 Xrotation Yrotation Zrotation
					JOINT RightToe_End
					{
						OFFSET -2.754656 0.931271 11.300900
						CHANNELS 3 Xrotation Yrotation Zrotation
						End Site
						{
							OFFSET 0.000000 0.000000 0.000000
						}
					}
				}
			}
		}
	}
}
MOTION
Frames: 5
Frame Time: 0.016667
-2.431645 83.588234 -3.561118 -16.099309 -38.889625 -7.250716 5.999593 2.132403 -0.542981 12.035806 3.214012 -1.555559 0.000000 0.000000 0.000000 12.035805 3.214024 -1.555562 0.808826 2.930028 5.847933 3.843908 16.036796 -7.029032 0.000001 -0.000001 0.000000 -0.675790 6.367328 14.435332 0.000000 0.000000 0.000000 -28.790951 -37.067150 1.586529 12.375106 -28.236653 -8.604987 -0.957376 -7.759257 16.772043 5.408903 -2.811132 -12.094727 2.313258 6.712879 2.167830 -0.000507 -0.000623 0.000250 -0.000002 -0.000001 -0.000000 -5.947040 -8.281376 -45.273499 -2.543273 -2.964930 -53.533824 -0.000002 0.000000 -0.000001 -0.000001 0.000001 -0.000001 -1.995726 -2.563021 -48.986547 -2.065337 -3.942918 -47.253636 0.002111 -0.822880 0.293760 0.000002 -0.000000 -0.000001 0.524440 6.787434 -53.784840 -1.357219 -3.680137 -49.999696 0.000004 -0.001147 0.000007 -0.000000 0.000000 0.000000 4.726696 16.549053 -50.056561 -1.119024 -6.218130 -59.516206 0.000002 0.000000 -0.000002 -0.000000 0.000000 0.000000 0.346726 -1.487425 -4.124248 0.000000 0.000000 0.000000 -25.757781 28.229384 -3.418371 1.196652 30.726231 10.054224 -17.482450 20.868315 5.532094 17.417607 5.951788 31.828682 6.410898 -16.047126 -2.790160 -0.000503 -0.000103 -0.000969 0.000000 -0.000001 -0.000003 -5.229838 8.464993 32.074322 -1.032400 1.058403 40.424065 -0.000001 0.000001 -0.000001 -0.000001 -0.000002 0.000001 -2.040590 0.933837 35.865317 -0.879310 2.179203 34.170046 0.002108 0.822882 -0.293754 0.000000 -0.000000 0.000001 2.783242 -8.316264 41.089899 -1.050041 3.835734 36.753306 -0.000001 -0.000002 -0.000001 -0.000001 -0.000001 0.000001 6.810077 -17.489659 37.760629 -1.812468 8.287510 46.051003 -0.000003 -0.000001 0.000000 -0.000003 -0.000001 0.000000 -28.483929 2.237507 13.106043 37.966317 -10.151111 2.302844 14.272661 -0.437956 -14.392269 -17.826710 0.234519 1.090415 -0.000000 -0.000000 -0.000000 11.872080 -18.817706 -18.376342 35.623063 -3.735122 0.665341 -30.387505 -7.510363 17.480959 -11.738461 -3.077283 -1.215569 -0.000000 0.000000 0.000000 
-4.970540 92.218399 -2.881393 -16.473574 -39.083316 -7.493701 5.394059 1.997829 -0.587066 10.847844 3.499691 -2.042199 0.000000 0.000000 0.000000 10.847841 3.499700 -2.042202 3.765079 2.490150 6.424214 6.751133 15.504521 -8.701757 0.000002 -0.000001 0.000000 -1.740825 10.008577 19.408131 0.000000 0.000000 0.000000 -26.192575 -34.609122 5.469928 13.331540 -27.802495 -8.606431 -1.200540 -9.281188 16.875741 4.890346 -2.638059 -11.111401 2.310829 6.708106 2.168773 -0.000505 -0.000622 0.000249 0.000001 0.000000 -0.000001 -5.522443 -8.096407 -43.609419 -2.380963 -2.841118 -51.894008 0.000001 -0.000000 0.000001 -0.000000 0.000001 0.000001 -1.871277 -2.445207 -47.347998 -1.932522 -3.816914 -45.619974 0.002111 -0.822879 0.293761 -0.000000 0.000003 0.000001 0.479557 6.854060 -52.144174 -1.277836 -3.610952 -48.368733 0.000005 -0.001148 0.000009 0.000000 0.000000 -0.000000 4.392520 16.552677 -48.331860 -1.084298 -6.196280 -57.882151 0.000003 0.000003 -0.000002 0.000000 0.000003 0.000001 0.297391 -2.580784 -7.091977 0.000000 0.000000 0.000000 -24.941448 30.141621 -6.000017 4.265863 24.134262 8.758910 -18.319153 21.125719 10.169513 17.302399 5.348648 30.937284 6.434298 -16.093563 -2.790513 -0.000501 -0.000101 -0.000972 0.000000 -0.000001 0.000001 -4.921719 8.195758 31.489522 -0.993911 1.013204 39.852043 -0.000001 0.000001 0.000001 0.000000 -0.000000 0.000002 -2.012098 0.893491 35.292602 -0.850354 2.135804 33.611033 0.002114 0.822883 -0.293757 0.000004 -0.000001 0.000001 2.626776 -8.247450 40.482016 -1.019791 3.795267 36.196478 -0.000003 -0.000001 -0.000000 0.000000 -0.000001 0.000002 6.460243 -17.288998 37.059807 -1.779724 8.256260 45.486799 0.000002 -0.000000 0.000001 0.000002 -0.000000 -0.000000 -20.597880 5.848988 13.119772 22.555691 -11.380888 3.025995 30.953482 -3.468746 -15.508114 -22.199530 -0.097943 -0.129111 0.000000 0.000001 -0.000000 17.459377 -19.310408 -14.503521 22.331923 -1.946421 0.510056 -15.171525 -4.915291 14.884715 -28.662035 -1.153840 -4.150370 -0.000002 0.000000 -0.000000 
-6.996954 99.992462 -2.113158 -15.778883 -39.711963 -7.418072 5.020663 1.921096 -0.142127 10.148496 3.743867 -2.337036 0.000000 0.000000 0.000000 10.148497 3.743870 -2.337032 6.185548 2.219090 6.632934 8.363089 15.206689 -10.348301 0.000002 -0.000000 -0.000000 -3.167068 13.780729 23.119719 0.000000 0.000000 0.000000 -24.890514 -30.313769 7.421928 12.072682 -29.418899 -8.364402 -1.596532 -10.326449 18.514044 4.255438 -2.460426 -9.943717 2.314841 6.714956 2.169978 -0.000506 -0.000623 0.000249 -0.000000 -0.000001 -0.000003 -5.044508 -7.847816 -41.696912 -2.198034 -2.692306 -49.999030 -0.000001 0.000001 -0.000002 0.000000 0.000001 0.000000 -1.734759 -2.322308 -45.450353 -1.781929 -3.664939 -43.709536 0.002110 -0.822878 0.293761 -0.000000 0.000002 0.000002 0.427107 6.911353 -50.219038 -1.186693 -3.526061 -46.446608 0.000005 -0.001149 0.000008 -0.000000 0.000002 0.000001 4.009009 16.527186 -46.293328 -1.044395 -6.169686 -55.960331 0.000002 0.000002 -0.000000 -0.000001 0.000000 -0.000000 0.192154 -3.941868 -9.435511 0.000000 0.000000 0.000000 -25.101439 30.608004 -7.088056 5.244301 19.131394 7.434609 -18.905376 20.560811 15.419692 16.898030 4.657564 29.509791 6.376540 -15.954065 -2.784957 -0.000501 -0.000100 -0.000970 -0.000003 0.000001 0.000002 -4.577159 7.873098 30.645331 -0.938417 0.946079 39.012422 0.000000 0.000000 0.000001 -0.000000 -0.000000 0.000001 -1.972219 0.838097 34.451157 -0.806557 2.068530 32.747485 0.002113 0.822886 -0.293761 0.000001 -0.000001 -0.000001 2.464630 -8.178801 39.594863 -0.973605 3.731506 35.326742 -0.000000 -0.000001 0.000002 0.000002 -0.000001 0.000001 6.086258 -17.075162 36.059697 -1.729874 8.207530 44.618303 0.000001 -0.000001 0.000001 0.000001 -0.000000 -0.000002 -15.548096 7.950041 11.329349 12.713654 -16.200425 3.730219 41.122202 -5.289196 -13.184148 -16.060514 -0.378169 -2.525844 -0.000000 0.000003 -0.000001 19.117693 -18.914015 -12.696079 11.897872 -1.356806 -0.491375 3.714233 0.551822 14.691877 -29.060280 1.918109 -4.926090 -0.000000 0.000001 0.000000 
-7.903183 106.683891 -2.656320 -14.538408 -40.078034 -5.538138 4.988951 2.038064 -0.618686 10.072718 3.936680 -2.636163 0.000000 0.000000 0.000000 10.072718 3.936691 -2.636164 8.079802 2.146869 6.397285 8.432123 15.201851 -11.751656 0.000001 0.000000 -0.000000 -4.630809 17.333253 25.050929 0.000000 0.000000 0.000000 -24.671799 -24.530110 8.335669 8.329215 -33.007658 -8.385738 -2.699938 -10.751506 22.223151 3.507193 -2.290769 -8.608122 2.326911 6.736586 2.171258 -0.000501 -0.000623 0.000249 0.000001 -0.000000 -0.000002 -4.529587 -7.529945 -39.579884 -2.000269 -2.519654 -47.888765 -0.000002 -0.000000 -0.000002 -0.000002 0.000001 0.000001 -1.591775 -2.200180 -43.332134 -1.618331 -3.488068 -41.556483 0.002112 -0.822879 0.293758 0.000000 0.000003 0.000001 0.368420 6.952051 -48.042065 -1.086456 -3.425854 -44.263570 0.000004 -0.001146 0.000012 0.000001 0.000000 -0.000003 3.587652 16.462052 -43.972556 -1.000163 -6.138326 -53.782002 0.000002 0.000000 -0.000003 -0.000002 -0.000001 -0.000003 0.029637 -5.466250 -10.974434 0.000000 0.000000 0.000000 -25.840103 29.123889 -7.602972 3.749093 16.277459 6.271952 -19.709202 19.590649 19.197331 16.225179 3.909115 27.599773 6.242642 -15.641036 -2.773492 -0.000504 -0.000100 -0.000970 -0.000002 -0.000002 -0.000001 -4.209861 7.500862 29.579237 -0.868967 0.859148 37.939259 0.000000 0.000002 -0.000000 0.000003 -0.000000 0.000001 -1.923578 0.770581 33.374876 -0.750055 1.978534 31.603463 0.002111 0.822884 -0.293761 0.000003 -0.000002 -0.000000 2.300152 -8.107700 38.460583 -0.913504 3.645313 34.166157 0.000002 -0.000001 -0.000002 0.000001 -0.000001 0.000000 5.698749 -16.846798 34.791334 -1.664715 8.141977 43.470254 -0.000001 0.000000 0.000001 -0.000002 -0.000000 -0.000002 -13.628608 8.398615 8.215048 8.806567 -22.460307 3.551330 45.637702 -6.803861 -14.793761 1.609434 -1.163941 -8.833365 -0.000000 0.000002 -0.000000 15.853361 -18.392359 -15.626004 6.481365 0.934377 -1.340985 20.130004 2.066600 23.754686 -23.812205 2.787456 -7.139907 -0.000001 0.000001 0.000000 
-7.892765 112.805199 -3.475267 -13.156850 -39.619670 -2.826945 5.153977 2.147222 -1.363611 10.376423 4.037869 -3.105351 0.000000 0.000000 0.000000 10.376420 4.037871 -3.105351 9.652198 2.282488 5.731344 7.016952 15.557569 -12.731647 0.000001 0.000000 -0.000000 -5.745061 20.421239 24.929559 0.000000 0.000000 0.000000 -25.031308 -17.671596 9.265413 2.284584 -38.060058 -9.510784 -4.914108 -10.581157 27.792687 2.671842 -2.133232 -7.141671 2.344433 6.767412 2.172135 -0.000505 -0.000624 0.000244 -0.000001 -0.000001 -0.000001 -3.994978 -7.147607 -37.296111 -1.793555 -2.324346 -45.602475 0.000002 0.000001 -0.000003 0.000002 -0.000001 -0.000002 -1.445403 -2.072271 -41.034431 -1.447957 -3.288742 -39.210371 0.002109 -0.822878 0.293757 0.000000 0.000002 -0.000000 0.305888 6.980047 -45.665535 -0.981233 -3.311863 -41.875760 0.000005 -0.001148 0.000014 0.000001 0.000001 -0.000001 3.144503 16.354869 -41.433379 -0.953014 -6.102313 -51.401384 0.000002 0.000001 -0.000007 0.000000 0.000001 -0.000001 -0.169267 -7.015043 -11.581072 0.000000 0.000000 0.000000 -26.790941 25.557002 -8.317967 -0.230666 15.666390 5.385526 -21.255921 18.683342 19.924210 15.296393 3.138416 25.279044 6.045240 -15.183994 -2.756116 -0.000502 -0.000101 -0.000969 -0.000001 -0.000002 -0.000000 -3.832388 7.081766 28.323036 -0.788875 0.754376 36.666983 0.000004 0.000002 -0.000004 0.000003 0.000003 0.000002 -1.868292 0.691166 32.098532 -0.684774 1.869257 30.231073 0.002111 0.822884 -0.293759 -0.000000 0.000001 -0.000002 2.137850 -8.032479 37.118622 -0.843613 3.540178 32.770742 0.000002 -0.000003 -0.000000 0.000000 -0.000001 0.000001 5.310134 -16.599407 33.303569 -1.588051 8.061823 42.094343 -0.000001 -0.000002 0.000002 -0.000001 0.000000 -0.000002 -13.142792 7.968287 5.874627 6.840634 -24.922508 1.444215 49.295097 -9.162870 -19.272707 2.228511 -0.989942 -8.712222 -0.000001 0.000000 0.000001 9.560766 -18.079051 -19.617729 10.753569 0.798809 -0.800421 21.882791 1.959776 21.959909 -12.016224 2.615776 -9.290574 -0.000000 0.000000 0.000000 
